<svg id="visual" viewBox="0 0 900 600" width="900" height="600" xmlns="http://www.w3.org/2000/svg" xmlns:xlink="http://www.w3.org/1999/xlink" version="1.1"><path d="M0 239L13.7 244.8C27.3 250.7 54.7 262.3 82 279.3C109.3 296.3 136.7 318.7 163.8 326.8C191 335 218 329 245.2 315.8C272.3 302.7 299.7 282.3 327 278.5C354.3 274.7 381.7 287.3 409 296.7C436.3 306 463.7 312 491 304.7C518.3 297.3 545.7 276.7 573 266.3C600.3 256 627.7 256 654.8 273C682 290 709 324 736.2 336.3C763.3 348.7 790.7 339.3 818 336.2C845.3 333 872.7 336 886.3 337.5L900 339L900 601L886.3 601C872.7 601 845.3 601 818 601C790.7 601 763.3 601 736.2 601C709 601 682 601 654.8 601C627.7 601 600.3 601 573 601C545.7 601 518.3 601 491 601C463.7 601 436.3 601 409 601C381.7 601 354.3 601 327 601C299.7 601 272.3 601 245.2 601C218 601 191 601 163.8 601C136.7 601 109.3 601 82 601C54.7 601 27.3 601 13.7 601L0 601Z" fill="#fff" stroke-linecap="round" stroke-linejoin="miter"></path></svg>